<svg xmlns="http://www.w3.org/2000/svg" width="150.844" height="742.228" viewBox="0 0 150.844 742.228">
  <g id="Groupe_24328" data-name="Groupe 24328" transform="translate(-7.048 -1142.271)">
    <g id="Groupe_23816" data-name="Groupe 23816" transform="translate(-28.918 1500.07)" opacity="0.2">
      <g id="Groupe_24017" data-name="Groupe 24017">
        <path id="Tracé_39826" data-name="Tracé 39826" d="M38.84,80.072l8.644,6.805a7.667,7.667,0,0,0,4.743,1.639h1.809L43.481,76.229Z" transform="translate(59.563 116.901)" fill="#9cacd9"/>
        <path id="Tracé_39827" data-name="Tracé 39827" d="M68.233,70.655h-.205a13.92,13.92,0,0,0-8.974,3.281L52.908,79.12,39.034,72.1a13.448,13.448,0,0,0-6.065-1.447H30.952L47.547,83.642l-12.093,10.2h-.6A6.808,6.808,0,0,0,29.539,96.4l-.53.666h6.542a11.66,11.66,0,0,0,7.441-2.683L69.014,72.819a1.222,1.222,0,0,0-.78-2.164" transform="translate(44.487 108.353)" fill="#9cacd9"/>
        <path id="Tracé_39828" data-name="Tracé 39828" d="M67.6,80.072l8.645,6.805a7.667,7.667,0,0,0,4.743,1.639H82.8L72.242,76.229Z" transform="translate(103.67 116.901)" fill="#9cacd9"/>
        <path id="Tracé_39829" data-name="Tracé 39829" d="M96.993,70.655h-.205a13.92,13.92,0,0,0-8.974,3.281L81.668,79.12,67.794,72.1a13.448,13.448,0,0,0-6.065-1.447H59.712L76.307,83.642l-12.093,10.2h-.6A6.808,6.808,0,0,0,58.3,96.4l-.53.666h6.542a11.66,11.66,0,0,0,7.441-2.683L97.774,72.819a1.222,1.222,0,0,0-.78-2.164" transform="translate(88.592 108.353)" fill="#9cacd9"/>
        <path id="Tracé_39830" data-name="Tracé 39830" d="M24.028,97.738l8.644,6.8a7.67,7.67,0,0,0,4.743,1.642h1.809L28.669,93.892Z" transform="translate(36.848 143.988)" fill="#9cacd9"/>
        <path id="Tracé_39831" data-name="Tracé 39831" d="M53.42,88.319h-.205A13.92,13.92,0,0,0,44.241,91.6L38.1,96.784,24.221,89.766a13.448,13.448,0,0,0-6.065-1.447H16.139l16.595,12.987-12.093,10.2h-.6a6.808,6.808,0,0,0-5.318,2.559l-.53.666h6.542a11.66,11.66,0,0,0,7.441-2.683L54.2,90.483a1.222,1.222,0,0,0-.78-2.164" transform="translate(21.77 135.442)" fill="#9cacd9"/>
        <path id="Tracé_39832" data-name="Tracé 39832" d="M53.037,97.738l8.644,6.8a7.67,7.67,0,0,0,4.743,1.642h1.809L57.678,93.892Z" transform="translate(81.335 143.988)" fill="#9cacd9"/>
        <path id="Tracé_39833" data-name="Tracé 39833" d="M82.429,88.319h-.205A13.92,13.92,0,0,0,73.25,91.6L67.1,96.784,53.23,89.766a13.448,13.448,0,0,0-6.065-1.447H45.148l16.595,12.987-12.093,10.2h-.6a6.8,6.8,0,0,0-5.315,2.559l-.532.666h6.542a11.66,11.66,0,0,0,7.441-2.683L83.21,90.483a1.222,1.222,0,0,0-.78-2.164" transform="translate(66.257 135.442)" fill="#9cacd9"/>
        <path id="Tracé_39836" data-name="Tracé 39836" d="M38.84,115.4l8.644,6.8a7.67,7.67,0,0,0,4.743,1.642h1.809l-10.555-12.29Z" transform="translate(59.563 171.077)" fill="#9cacd9"/>
        <path id="Tracé_39837" data-name="Tracé 39837" d="M68.233,105.983h-.205a13.92,13.92,0,0,0-8.974,3.281l-6.146,5.184L39.034,107.43a13.448,13.448,0,0,0-6.065-1.447H30.952L47.547,118.97l-12.093,10.2h-.6a6.808,6.808,0,0,0-5.318,2.559l-.53.666h6.542a11.66,11.66,0,0,0,7.441-2.683l26.022-21.566a1.222,1.222,0,0,0-.78-2.164" transform="translate(44.487 162.531)" fill="#9cacd9"/>
        <path id="Tracé_39838" data-name="Tracé 39838" d="M67.6,115.4l8.645,6.8a7.67,7.67,0,0,0,4.743,1.642H82.8l-10.555-12.29Z" transform="translate(103.67 171.077)" fill="#da001c"/>
        <path id="Tracé_39839" data-name="Tracé 39839" d="M96.993,105.983h-.205a13.92,13.92,0,0,0-8.974,3.281l-6.146,5.184L67.794,107.43a13.448,13.448,0,0,0-6.065-1.447H59.712L76.307,118.97l-12.093,10.2h-.6a6.808,6.808,0,0,0-5.318,2.559l-.53.666h6.542a11.66,11.66,0,0,0,7.441-2.683l26.022-21.566a1.222,1.222,0,0,0-.78-2.164" transform="translate(88.592 162.531)" fill="#da001c"/>
        <path id="Tracé_39840" data-name="Tracé 39840" d="M24.028,133.066l8.644,6.8a7.67,7.67,0,0,0,4.743,1.642h1.809L28.669,129.22Z" transform="translate(36.848 198.166)" fill="#9cacd9"/>
        <path id="Tracé_39841" data-name="Tracé 39841" d="M53.42,123.647h-.205a13.92,13.92,0,0,0-8.974,3.281L38.1,132.112l-13.874-7.018a13.448,13.448,0,0,0-6.065-1.447H16.139l16.595,12.987-12.093,10.2h-.6a6.808,6.808,0,0,0-5.318,2.559l-.53.666h6.542a11.66,11.66,0,0,0,7.441-2.683L54.2,125.811a1.222,1.222,0,0,0-.78-2.164" transform="translate(21.77 189.619)" fill="#9cacd9"/>
        <path id="Tracé_39842" data-name="Tracé 39842" d="M53.037,133.066l8.644,6.8a7.67,7.67,0,0,0,4.743,1.642h1.809L57.678,129.22Z" transform="translate(81.335 198.166)" fill="#9cacd9"/>
        <path id="Tracé_39843" data-name="Tracé 39843" d="M82.429,123.647h-.205a13.92,13.92,0,0,0-8.974,3.281L67.1,132.112,53.23,125.094a13.448,13.448,0,0,0-6.065-1.447H45.148l16.595,12.987-12.093,10.2h-.6a6.8,6.8,0,0,0-5.315,2.559l-.532.666h6.542a11.66,11.66,0,0,0,7.441-2.683L83.21,125.811a1.222,1.222,0,0,0-.78-2.164" transform="translate(66.257 189.619)" fill="#9cacd9"/>
        <path id="Tracé_39846" data-name="Tracé 39846" d="M38.84,9.419l8.644,6.8a7.67,7.67,0,0,0,4.743,1.642h1.809L43.481,5.573Z" transform="translate(59.563 8.546)" fill="#9cacd9"/>
        <path id="Tracé_39847" data-name="Tracé 39847" d="M68.233,0h-.205a13.92,13.92,0,0,0-8.974,3.281L52.908,8.465,39.034,1.447A13.448,13.448,0,0,0,32.969,0H30.952L47.547,12.987l-12.093,10.2h-.6a6.808,6.808,0,0,0-5.318,2.559l-.53.666h6.542a11.66,11.66,0,0,0,7.441-2.683L69.014,2.164A1.222,1.222,0,0,0,68.233,0" transform="translate(44.487 0)" fill="#9cacd9"/>
        <path id="Tracé_39848" data-name="Tracé 39848" d="M67.6,9.419l8.645,6.8a7.67,7.67,0,0,0,4.743,1.642H82.8L72.242,5.573Z" transform="translate(103.67 8.546)" fill="#9cacd9"/>
        <path id="Tracé_39849" data-name="Tracé 39849" d="M96.993,0h-.205a13.92,13.92,0,0,0-8.974,3.281L81.668,8.465,67.794,1.447A13.448,13.448,0,0,0,61.729,0H59.712L76.307,12.987l-12.093,10.2h-.6A6.808,6.808,0,0,0,58.3,25.746l-.53.666h6.542a11.66,11.66,0,0,0,7.441-2.683L97.774,2.164A1.222,1.222,0,0,0,96.993,0" transform="translate(88.592 0)" fill="#9cacd9"/>
        <path id="Tracé_39850" data-name="Tracé 39850" d="M24.028,27.083l8.644,6.8a7.67,7.67,0,0,0,4.743,1.642h1.809L28.669,23.237Z" transform="translate(36.848 35.635)" fill="#9cacd9"/>
        <path id="Tracé_39851" data-name="Tracé 39851" d="M53.42,17.664h-.205a13.92,13.92,0,0,0-8.974,3.281L38.1,26.129,24.221,19.111a13.448,13.448,0,0,0-6.065-1.447H16.139L32.734,30.651l-12.093,10.2h-.6a6.808,6.808,0,0,0-5.318,2.559l-.53.666h6.542a11.66,11.66,0,0,0,7.441-2.683L54.2,19.828a1.222,1.222,0,0,0-.78-2.164" transform="translate(21.77 27.089)" fill="#9cacd9"/>
        <path id="Tracé_39852" data-name="Tracé 39852" d="M53.037,27.083l8.644,6.8a7.67,7.67,0,0,0,4.743,1.642h1.809L57.678,23.237Z" transform="translate(81.335 35.635)" fill="#da001c"/>
        <path id="Tracé_39853" data-name="Tracé 39853" d="M82.429,17.664h-.205a13.92,13.92,0,0,0-8.974,3.281L67.1,26.129,53.23,19.111a13.448,13.448,0,0,0-6.065-1.447H45.148L61.743,30.651,49.65,40.851h-.6a6.8,6.8,0,0,0-5.315,2.559l-.532.666h6.542a11.66,11.66,0,0,0,7.441-2.683L83.21,19.828a1.222,1.222,0,0,0-.78-2.164" transform="translate(66.257 27.089)" fill="#da001c"/>
        <path id="Tracé_39856" data-name="Tracé 39856" d="M38.84,44.747l8.644,6.8a7.67,7.67,0,0,0,4.743,1.642h1.809L43.481,40.9Z" transform="translate(59.563 62.724)" fill="#9cacd9"/>
        <path id="Tracé_39857" data-name="Tracé 39857" d="M68.233,35.327h-.205a13.923,13.923,0,0,0-8.974,3.283l-6.146,5.184L39.034,36.776a13.45,13.45,0,0,0-6.065-1.449H30.952l16.595,12.99-12.093,10.2h-.6a6.811,6.811,0,0,0-5.318,2.561l-.53.666h6.542a11.66,11.66,0,0,0,7.441-2.683L69.014,37.493a1.224,1.224,0,0,0-.78-2.166" transform="translate(44.487 54.176)" fill="#9cacd9"/>
        <path id="Tracé_39858" data-name="Tracé 39858" d="M67.6,44.747l8.645,6.8a7.67,7.67,0,0,0,4.743,1.642H82.8L72.242,40.9Z" transform="translate(103.67 62.724)" fill="#9cacd9"/>
        <path id="Tracé_39859" data-name="Tracé 39859" d="M96.993,35.327h-.205a13.923,13.923,0,0,0-8.974,3.283l-6.146,5.184L67.794,36.776a13.45,13.45,0,0,0-6.065-1.449H59.712l16.595,12.99-12.093,10.2h-.6A6.811,6.811,0,0,0,58.3,61.076l-.53.666h6.542a11.66,11.66,0,0,0,7.441-2.683L97.774,37.493a1.224,1.224,0,0,0-.78-2.166" transform="translate(88.592 54.176)" fill="#9cacd9"/>
        <path id="Tracé_39860" data-name="Tracé 39860" d="M24.028,62.411l8.644,6.8a7.67,7.67,0,0,0,4.743,1.642h1.809L28.669,58.565Z" transform="translate(36.848 89.813)" fill="#9cacd9"/>
        <path id="Tracé_39861" data-name="Tracé 39861" d="M53.42,52.991h-.205a13.92,13.92,0,0,0-8.974,3.281L38.1,61.456,24.221,54.438a13.448,13.448,0,0,0-6.065-1.447H16.139L32.734,65.978l-12.093,10.2h-.6a6.808,6.808,0,0,0-5.318,2.559l-.53.666h6.542a11.66,11.66,0,0,0,7.441-2.683L54.2,55.155a1.222,1.222,0,0,0-.78-2.164" transform="translate(21.77 81.265)" fill="#9cacd9"/>
        <path id="Tracé_39862" data-name="Tracé 39862" d="M53.037,62.411l8.644,6.8a7.67,7.67,0,0,0,4.743,1.642h1.809L57.678,58.565Z" transform="translate(81.335 89.813)" fill="#9cacd9"/>
        <path id="Tracé_39863" data-name="Tracé 39863" d="M82.429,52.991h-.205a13.92,13.92,0,0,0-8.974,3.281L67.1,61.456,53.23,54.438a13.448,13.448,0,0,0-6.065-1.447H45.148L61.743,65.978,49.65,76.178h-.6a6.8,6.8,0,0,0-5.315,2.559l-.532.666h6.542a11.66,11.66,0,0,0,7.441-2.683L83.21,55.155a1.222,1.222,0,0,0-.78-2.164" transform="translate(66.257 81.265)" fill="#9cacd9"/>
        <path id="Tracé_39866" data-name="Tracé 39866" d="M38.84,150.73l8.644,6.8a7.67,7.67,0,0,0,4.743,1.642h1.809l-10.555-12.29Z" transform="translate(59.563 225.255)" fill="#da001c"/>
        <path id="Tracé_39867" data-name="Tracé 39867" d="M68.233,141.31h-.205a13.92,13.92,0,0,0-8.974,3.281l-6.146,5.184-13.874-7.018a13.448,13.448,0,0,0-6.065-1.447H30.952L47.547,154.3,35.454,164.5h-.6a6.808,6.808,0,0,0-5.318,2.559l-.53.666h6.542a11.66,11.66,0,0,0,7.441-2.683l26.022-21.566a1.222,1.222,0,0,0-.78-2.164" transform="translate(44.487 216.706)" fill="#da001c"/>
        <path id="Tracé_39868" data-name="Tracé 39868" d="M67.6,150.73l8.645,6.8a7.67,7.67,0,0,0,4.743,1.642H82.8l-10.555-12.29Z" transform="translate(103.67 225.255)" fill="#9cacd9"/>
        <path id="Tracé_39869" data-name="Tracé 39869" d="M96.993,141.31h-.205a13.92,13.92,0,0,0-8.974,3.281l-6.146,5.184-13.874-7.018a13.448,13.448,0,0,0-6.065-1.447H59.712L76.307,154.3,64.214,164.5h-.6a6.808,6.808,0,0,0-5.318,2.559l-.53.666h6.542a11.66,11.66,0,0,0,7.441-2.683l26.022-21.566a1.222,1.222,0,0,0-.78-2.164" transform="translate(88.592 216.706)" fill="#9cacd9"/>
      </g>
    </g>
    <g id="Groupe_23940" data-name="Groupe 23940" transform="translate(-28.918 1142.271)" opacity="0.2">
      <g id="Groupe_23941" data-name="Groupe 23941" transform="translate(0 0)">
        <path id="Tracé_39826-2" data-name="Tracé 39826" d="M38.84,80.072l8.644,6.805a7.667,7.667,0,0,0,4.743,1.639h1.809L43.481,76.229Z" transform="translate(59.563 116.901)" fill="#9cacd9"/>
        <path id="Tracé_39827-2" data-name="Tracé 39827" d="M68.233,70.655h-.205a13.92,13.92,0,0,0-8.974,3.281L52.908,79.12,39.034,72.1a13.448,13.448,0,0,0-6.065-1.447H30.952L47.547,83.642l-12.093,10.2h-.6A6.808,6.808,0,0,0,29.539,96.4l-.53.666h6.542a11.66,11.66,0,0,0,7.441-2.683L69.014,72.819a1.222,1.222,0,0,0-.78-2.164" transform="translate(44.487 108.353)" fill="#9cacd9"/>
        <path id="Tracé_39828-2" data-name="Tracé 39828" d="M67.6,80.072l8.645,6.805a7.667,7.667,0,0,0,4.743,1.639H82.8L72.242,76.229Z" transform="translate(103.67 116.901)" fill="#9cacd9"/>
        <path id="Tracé_39829-2" data-name="Tracé 39829" d="M96.993,70.655h-.205a13.92,13.92,0,0,0-8.974,3.281L81.668,79.12,67.794,72.1a13.448,13.448,0,0,0-6.065-1.447H59.712L76.307,83.642l-12.093,10.2h-.6A6.808,6.808,0,0,0,58.3,96.4l-.53.666h6.542a11.66,11.66,0,0,0,7.441-2.683L97.774,72.819a1.222,1.222,0,0,0-.78-2.164" transform="translate(88.592 108.353)" fill="#9cacd9"/>
        <path id="Tracé_39830-2" data-name="Tracé 39830" d="M24.028,97.738l8.644,6.8a7.67,7.67,0,0,0,4.743,1.642h1.809L28.669,93.892Z" transform="translate(36.848 143.988)" fill="#9cacd9"/>
        <path id="Tracé_39831-2" data-name="Tracé 39831" d="M53.42,88.319h-.205A13.92,13.92,0,0,0,44.241,91.6L38.1,96.784,24.221,89.766a13.448,13.448,0,0,0-6.065-1.447H16.139l16.595,12.987-12.093,10.2h-.6a6.808,6.808,0,0,0-5.318,2.559l-.53.666h6.542a11.66,11.66,0,0,0,7.441-2.683L54.2,90.483a1.222,1.222,0,0,0-.78-2.164" transform="translate(21.77 135.442)" fill="#9cacd9"/>
        <path id="Tracé_39832-2" data-name="Tracé 39832" d="M53.037,97.738l8.644,6.8a7.67,7.67,0,0,0,4.743,1.642h1.809L57.678,93.892Z" transform="translate(81.335 143.988)" fill="#9cacd9"/>
        <path id="Tracé_39833-2" data-name="Tracé 39833" d="M82.429,88.319h-.205A13.92,13.92,0,0,0,73.25,91.6L67.1,96.784,53.23,89.766a13.448,13.448,0,0,0-6.065-1.447H45.148l16.595,12.987-12.093,10.2h-.6a6.8,6.8,0,0,0-5.315,2.559l-.532.666h6.542a11.66,11.66,0,0,0,7.441-2.683L83.21,90.483a1.222,1.222,0,0,0-.78-2.164" transform="translate(66.257 135.442)" fill="#9cacd9"/>
        <path id="Tracé_39836-2" data-name="Tracé 39836" d="M38.84,115.4l8.644,6.8a7.67,7.67,0,0,0,4.743,1.642h1.809l-10.555-12.29Z" transform="translate(59.563 171.077)" fill="#9cacd9"/>
        <path id="Tracé_39837-2" data-name="Tracé 39837" d="M68.233,105.983h-.205a13.92,13.92,0,0,0-8.974,3.281l-6.146,5.184L39.034,107.43a13.448,13.448,0,0,0-6.065-1.447H30.952L47.547,118.97l-12.093,10.2h-.6a6.808,6.808,0,0,0-5.318,2.559l-.53.666h6.542a11.66,11.66,0,0,0,7.441-2.683l26.022-21.566a1.222,1.222,0,0,0-.78-2.164" transform="translate(44.487 162.531)" fill="#9cacd9"/>
        <path id="Tracé_39838-2" data-name="Tracé 39838" d="M67.6,115.4l8.645,6.8a7.67,7.67,0,0,0,4.743,1.642H82.8l-10.555-12.29Z" transform="translate(103.67 171.077)" fill="#da001c"/>
        <path id="Tracé_39839-2" data-name="Tracé 39839" d="M96.993,105.983h-.205a13.92,13.92,0,0,0-8.974,3.281l-6.146,5.184L67.794,107.43a13.448,13.448,0,0,0-6.065-1.447H59.712L76.307,118.97l-12.093,10.2h-.6a6.808,6.808,0,0,0-5.318,2.559l-.53.666h6.542a11.66,11.66,0,0,0,7.441-2.683l26.022-21.566a1.222,1.222,0,0,0-.78-2.164" transform="translate(88.592 162.531)" fill="#da001c"/>
        <path id="Tracé_39840-2" data-name="Tracé 39840" d="M24.028,133.066l8.644,6.8a7.67,7.67,0,0,0,4.743,1.642h1.809L28.669,129.22Z" transform="translate(36.848 198.166)" fill="#9cacd9"/>
        <path id="Tracé_39841-2" data-name="Tracé 39841" d="M53.42,123.647h-.205a13.92,13.92,0,0,0-8.974,3.281L38.1,132.112l-13.874-7.018a13.448,13.448,0,0,0-6.065-1.447H16.139l16.595,12.987-12.093,10.2h-.6a6.808,6.808,0,0,0-5.318,2.559l-.53.666h6.542a11.66,11.66,0,0,0,7.441-2.683L54.2,125.811a1.222,1.222,0,0,0-.78-2.164" transform="translate(21.77 189.619)" fill="#9cacd9"/>
        <path id="Tracé_39842-2" data-name="Tracé 39842" d="M53.037,133.066l8.644,6.8a7.67,7.67,0,0,0,4.743,1.642h1.809L57.678,129.22Z" transform="translate(81.335 198.166)" fill="#9cacd9"/>
        <path id="Tracé_39843-2" data-name="Tracé 39843" d="M82.429,123.647h-.205a13.92,13.92,0,0,0-8.974,3.281L67.1,132.112,53.23,125.094a13.448,13.448,0,0,0-6.065-1.447H45.148l16.595,12.987-12.093,10.2h-.6a6.8,6.8,0,0,0-5.315,2.559l-.532.666h6.542a11.66,11.66,0,0,0,7.441-2.683L83.21,125.811a1.222,1.222,0,0,0-.78-2.164" transform="translate(66.257 189.619)" fill="#9cacd9"/>
        <path id="Tracé_39846-2" data-name="Tracé 39846" d="M38.84,9.419l8.644,6.8a7.67,7.67,0,0,0,4.743,1.642h1.809L43.481,5.573Z" transform="translate(59.563 8.546)" fill="#9cacd9"/>
        <path id="Tracé_39847-2" data-name="Tracé 39847" d="M68.233,0h-.205a13.92,13.92,0,0,0-8.974,3.281L52.908,8.465,39.034,1.447A13.448,13.448,0,0,0,32.969,0H30.952L47.547,12.987l-12.093,10.2h-.6a6.808,6.808,0,0,0-5.318,2.559l-.53.666h6.542a11.66,11.66,0,0,0,7.441-2.683L69.014,2.164A1.222,1.222,0,0,0,68.233,0" transform="translate(44.487 0)" fill="#9cacd9"/>
        <path id="Tracé_39848-2" data-name="Tracé 39848" d="M67.6,9.419l8.645,6.8a7.67,7.67,0,0,0,4.743,1.642H82.8L72.242,5.573Z" transform="translate(103.67 8.546)" fill="#9cacd9"/>
        <path id="Tracé_39849-2" data-name="Tracé 39849" d="M96.993,0h-.205a13.92,13.92,0,0,0-8.974,3.281L81.668,8.465,67.794,1.447A13.448,13.448,0,0,0,61.729,0H59.712L76.307,12.987l-12.093,10.2h-.6A6.808,6.808,0,0,0,58.3,25.746l-.53.666h6.542a11.66,11.66,0,0,0,7.441-2.683L97.774,2.164A1.222,1.222,0,0,0,96.993,0" transform="translate(88.592 0)" fill="#9cacd9"/>
        <path id="Tracé_39850-2" data-name="Tracé 39850" d="M24.028,27.083l8.644,6.8a7.67,7.67,0,0,0,4.743,1.642h1.809L28.669,23.237Z" transform="translate(36.848 35.635)" fill="#9cacd9"/>
        <path id="Tracé_39851-2" data-name="Tracé 39851" d="M53.42,17.664h-.205a13.92,13.92,0,0,0-8.974,3.281L38.1,26.129,24.221,19.111a13.448,13.448,0,0,0-6.065-1.447H16.139L32.734,30.651l-12.093,10.2h-.6a6.808,6.808,0,0,0-5.318,2.559l-.53.666h6.542a11.66,11.66,0,0,0,7.441-2.683L54.2,19.828a1.222,1.222,0,0,0-.78-2.164" transform="translate(21.77 27.089)" fill="#9cacd9"/>
        <path id="Tracé_39852-2" data-name="Tracé 39852" d="M53.037,27.083l8.644,6.8a7.67,7.67,0,0,0,4.743,1.642h1.809L57.678,23.237Z" transform="translate(81.335 35.635)" fill="#da001c"/>
        <path id="Tracé_39853-2" data-name="Tracé 39853" d="M82.429,17.664h-.205a13.92,13.92,0,0,0-8.974,3.281L67.1,26.129,53.23,19.111a13.448,13.448,0,0,0-6.065-1.447H45.148L61.743,30.651,49.65,40.851h-.6a6.8,6.8,0,0,0-5.315,2.559l-.532.666h6.542a11.66,11.66,0,0,0,7.441-2.683L83.21,19.828a1.222,1.222,0,0,0-.78-2.164" transform="translate(66.257 27.089)" fill="#da001c"/>
        <path id="Tracé_39856-2" data-name="Tracé 39856" d="M38.84,44.747l8.644,6.8a7.67,7.67,0,0,0,4.743,1.642h1.809L43.481,40.9Z" transform="translate(59.563 62.724)" fill="#9cacd9"/>
        <path id="Tracé_39857-2" data-name="Tracé 39857" d="M68.233,35.327h-.205a13.923,13.923,0,0,0-8.974,3.283l-6.146,5.184L39.034,36.776a13.45,13.45,0,0,0-6.065-1.449H30.952l16.595,12.99-12.093,10.2h-.6a6.811,6.811,0,0,0-5.318,2.561l-.53.666h6.542a11.66,11.66,0,0,0,7.441-2.683L69.014,37.493a1.224,1.224,0,0,0-.78-2.166" transform="translate(44.487 54.176)" fill="#9cacd9"/>
        <path id="Tracé_39858-2" data-name="Tracé 39858" d="M67.6,44.747l8.645,6.8a7.67,7.67,0,0,0,4.743,1.642H82.8L72.242,40.9Z" transform="translate(103.67 62.724)" fill="#9cacd9"/>
        <path id="Tracé_39859-2" data-name="Tracé 39859" d="M96.993,35.327h-.205a13.923,13.923,0,0,0-8.974,3.283l-6.146,5.184L67.794,36.776a13.45,13.45,0,0,0-6.065-1.449H59.712l16.595,12.99-12.093,10.2h-.6A6.811,6.811,0,0,0,58.3,61.076l-.53.666h6.542a11.66,11.66,0,0,0,7.441-2.683L97.774,37.493a1.224,1.224,0,0,0-.78-2.166" transform="translate(88.592 54.176)" fill="#9cacd9"/>
        <path id="Tracé_39860-2" data-name="Tracé 39860" d="M24.028,62.411l8.644,6.8a7.67,7.67,0,0,0,4.743,1.642h1.809L28.669,58.565Z" transform="translate(36.848 89.813)" fill="#9cacd9"/>
        <path id="Tracé_39861-2" data-name="Tracé 39861" d="M53.42,52.991h-.205a13.92,13.92,0,0,0-8.974,3.281L38.1,61.456,24.221,54.438a13.448,13.448,0,0,0-6.065-1.447H16.139L32.734,65.978l-12.093,10.2h-.6a6.808,6.808,0,0,0-5.318,2.559l-.53.666h6.542a11.66,11.66,0,0,0,7.441-2.683L54.2,55.155a1.222,1.222,0,0,0-.78-2.164" transform="translate(21.77 81.265)" fill="#9cacd9"/>
        <path id="Tracé_39862-2" data-name="Tracé 39862" d="M53.037,62.411l8.644,6.8a7.67,7.67,0,0,0,4.743,1.642h1.809L57.678,58.565Z" transform="translate(81.335 89.813)" fill="#9cacd9"/>
        <path id="Tracé_39863-2" data-name="Tracé 39863" d="M82.429,52.991h-.205a13.92,13.92,0,0,0-8.974,3.281L67.1,61.456,53.23,54.438a13.448,13.448,0,0,0-6.065-1.447H45.148L61.743,65.978,49.65,76.178h-.6a6.8,6.8,0,0,0-5.315,2.559l-.532.666h6.542a11.66,11.66,0,0,0,7.441-2.683L83.21,55.155a1.222,1.222,0,0,0-.78-2.164" transform="translate(66.257 81.265)" fill="#9cacd9"/>
      </g>
    </g>
  </g>
</svg>
